<?xml version="1.0" standalone="no"?>
<!DOCTYPE svg PUBLIC "-//W3C//DTD SVG 20010904//EN"
 "http://www.w3.org/TR/2001/REC-SVG-20010904/DTD/svg10.dtd">
<svg version="1.0" xmlns="http://www.w3.org/2000/svg"
 width="249.000000pt" height="249.000000pt" viewBox="0 0 249.000000 249.000000"
 preserveAspectRatio="xMidYMid meet">
<metadata>
Created by potrace 1.14, written by Peter Selinger 2001-2017
</metadata>
<g transform="translate(0.000000,249.000000) scale(0.100000,-0.100000)"
fill="#000000" stroke="none">
<path d="M1146 2283 c-1 -1 -20 -5 -42 -8 -39 -5 -75 -12 -84 -15 -3 -1 -9 -3
-15 -5 -5 -1 -12 -3 -15 -4 -5 -3 -22 -7 -57 -15 -11 -2 -35 -12 -52 -20 -17
-9 -31 -13 -31 -10 0 4 -8 0 -18 -9 -10 -10 -22 -14 -25 -10 -4 3 -7 1 -7 -6
0 -7 -4 -10 -9 -7 -5 3 -14 -1 -21 -9 -7 -8 -16 -12 -21 -9 -5 3 -12 -2 -15
-10 -3 -9 -10 -13 -15 -10 -5 3 -9 0 -9 -6 0 -6 -4 -9 -9 -6 -5 3 -12 -1 -15
-10 -4 -9 -9 -14 -13 -11 -3 4 -14 -3 -24 -15 -11 -11 -19 -17 -19 -12 0 5
-10 -2 -21 -16 -11 -14 -17 -19 -13 -11 5 9 3 12 -4 7 -7 -4 -12 -13 -12 -21
0 -8 -5 -17 -12 -21 -7 -5 -8 -3 -3 6 5 9 4 11 -3 6 -7 -4 -12 -14 -12 -22 0
-8 -4 -12 -10 -9 -5 3 -19 -9 -30 -27 -11 -18 -20 -30 -20 -25 0 4 -8 -1 -18
-10 -11 -10 -17 -21 -15 -25 2 -5 -1 -8 -6 -8 -6 0 -11 -7 -11 -16 0 -8 -3
-13 -7 -11 -5 2 -19 -10 -33 -27 -18 -23 -20 -27 -5 -16 12 9 10 3 -8 -18 -15
-19 -27 -40 -27 -48 0 -9 -4 -13 -9 -10 -9 6 -36 -50 -32 -66 0 -5 -4 -8 -10
-8 -5 0 -8 -4 -4 -9 3 -5 1 -12 -5 -16 -6 -4 -8 -11 -5 -16 4 -5 2 -9 -4 -9
-5 0 -13 -15 -17 -32 -10 -43 -9 -39 -22 -71 -7 -15 -11 -31 -10 -35 1 -4 -3
-24 -10 -45 -6 -21 -9 -47 -7 -57 2 -11 0 -22 -4 -24 -9 -6 -6 -256 3 -296 12
-53 17 -76 20 -95 1 -11 9 -31 16 -45 7 -14 13 -26 12 -27 -3 -5 2 -20 16 -56
7 -16 12 -33 12 -38 0 -5 4 -9 10 -9 5 0 10 -3 9 -7 -2 -16 14 -53 23 -53 5 0
7 -4 4 -9 -3 -5 1 -14 9 -21 8 -7 15 -19 15 -26 0 -8 5 -14 10 -14 6 0 10 -5
10 -11 0 -6 6 -17 13 -24 30 -34 35 -43 30 -49 -4 -3 1 -6 9 -6 9 0 22 -8 29
-18 13 -16 12 -16 -6 -3 -11 8 -4 -2 16 -22 34 -35 36 -39 26 -75 -13 -48 5
-88 51 -115 25 -15 53 -20 118 -20 47 0 87 -4 90 -9 6 -10 45 -26 55 -24 4 0
16 -7 26 -17 11 -9 23 -14 27 -10 4 4 11 2 15 -5 4 -7 18 -14 29 -15 12 -1 22
-4 22 -8 0 -4 8 -6 18 -4 9 1 22 -1 28 -6 6 -5 23 -10 38 -11 14 -1 26 -5 26
-9 0 -4 16 -6 35 -4 19 1 35 -1 35 -4 0 -3 21 -7 48 -7 26 -1 63 -2 82 -3 38
-1 155 5 155 9 0 2 50 9 82 11 13 1 20 6 16 12 -4 6 2 8 15 5 12 -4 22 -2 22
2 0 5 8 7 18 5 9 -1 23 3 31 9 8 6 17 10 20 10 3 -1 17 3 31 8 14 5 26 8 26 6
1 -2 12 6 25 17 14 13 20 14 15 5 -5 -9 -2 -8 7 2 8 10 16 15 20 12 3 -3 15 3
26 13 12 10 25 18 29 18 14 1 107 66 127 88 11 13 16 16 10 7 -5 -8 27 21 70
65 44 44 79 84 77 88 -1 4 5 10 13 13 8 4 15 12 15 18 0 7 11 23 25 36 14 13
23 26 20 28 -3 3 3 11 13 19 11 10 12 12 2 8 -8 -4 -6 1 4 9 11 9 16 16 10 16
-5 0 -5 3 1 8 14 10 35 49 35 66 0 8 4 16 10 18 5 2 11 13 13 25 2 12 6 26 10
29 4 4 7 16 7 26 0 10 4 18 8 18 5 0 9 6 10 13 0 6 3 28 7 47 3 19 7 41 7 48
1 6 4 12 8 12 8 0 9 18 14 180 2 74 1 139 -2 144 -3 5 -7 28 -8 50 -2 22 -6
47 -10 55 -4 9 -9 25 -11 36 -10 45 -19 70 -43 118 -10 20 -15 35 -10 32 4 -3
3 6 -3 20 -7 14 -15 25 -19 25 -5 0 -8 7 -8 16 0 9 -8 23 -17 31 -10 8 -13 12
-6 8 7 -3 0 12 -14 35 -15 22 -31 40 -35 40 -5 0 -6 5 -3 10 3 6 -1 13 -9 16
-9 3 -16 13 -16 20 0 8 -7 17 -15 20 -8 4 -15 11 -15 18 0 14 -106 116 -121
116 -6 0 -7 5 -4 10 3 6 2 10 -3 10 -5 0 -33 19 -63 43 -29 23 -50 35 -45 27
4 -8 0 -6 -8 4 -9 11 -16 17 -16 13 0 -4 -9 1 -20 11 -12 9 -24 17 -28 17 -4
1 -23 9 -42 20 -19 11 -37 20 -40 20 -3 1 -13 5 -22 9 -9 4 -25 9 -35 11 -10
2 -20 4 -23 5 -3 1 -8 2 -12 1 -5 0 -8 3 -8 7 0 5 -6 9 -12 10 -15 1 -53 10
-53 12 0 2 -36 9 -85 16 -46 6 -269 12 -274 7z m895 -350 c13 -16 12 -17 -3
-4 -10 7 -18 15 -18 17 0 8 8 3 21 -13z"/>
</g>
</svg>
